<svg width="44" height="44" viewBox="0 0 44 44" fill="none" xmlns="http://www.w3.org/2000/svg">
<g clip-path="url(#clip0_4_683)">
<path d="M11.9146 -0.00280503C11.9146 -0.00280503 10.8101 -0.00881953 9.67479 0.558834C8.53948 1.12649 7.3335 2.44615 7.3335 4.58504C7.3335 6.72393 8.53948 8.04359 9.67479 8.61125C10.8101 9.1789 11.9146 9.16612 11.9146 9.16612H35.747C35.7785 9.1655 35.8103 9.16325 35.8417 9.15936C35.9628 9.14654 36.0801 9.10974 36.1868 9.05109C36.24 9.02009 36.2898 8.98382 36.3357 8.94283C36.3831 8.90221 36.4261 8.85686 36.4643 8.80749C36.5009 8.75889 36.5327 8.70675 36.559 8.65185C36.6138 8.54208 36.646 8.42243 36.6537 8.29998C36.6553 8.23879 36.6508 8.17758 36.6402 8.11728C36.6371 8.08776 36.6326 8.0584 36.6267 8.02931C36.6191 7.99955 36.6101 7.9702 36.5997 7.94135C36.5692 7.85413 36.526 7.77201 36.4711 7.69774C36.452 7.67419 36.4316 7.65161 36.4102 7.63008C36.3692 7.58509 36.3239 7.54429 36.2749 7.50828C36.1514 7.41773 36.0071 7.35957 35.8553 7.33911C35.8194 7.33471 35.7833 7.33246 35.7471 7.33235C35.7471 7.33235 35.0241 7.32272 34.326 6.97372C33.628 6.62468 32.9997 6.11282 32.9997 4.58504C32.9997 3.05726 33.628 2.5454 34.326 2.19638C35.024 1.84737 35.747 1.83098 35.747 1.83098C36.9693 1.83074 36.9693 -0.00304263 35.747 -0.00280503H11.9146ZM11.9146 1.83098H31.9819C31.3126 2.75035 31.1659 3.66702 31.1659 4.58504C31.1659 5.50035 31.3189 6.41702 31.9751 7.33233H11.9146C11.9146 7.33233 11.1916 7.3227 10.4936 6.9737C9.79553 6.62468 9.16728 6.11282 9.16728 4.58504C9.16728 3.05726 9.79553 2.5454 10.4936 2.19638C11.1916 1.84737 11.9146 1.83098 11.9146 1.83098Z" fill="white"/>
<path d="M7.33328 4.58484V33.9186C7.33328 33.9186 7.32049 35.0231 7.88815 36.1584C8.4558 37.2937 9.77547 38.4997 11.9144 38.4997H32.0792C32.0792 38.4997 33.1905 38.5125 34.3258 37.9448C35.4611 37.3772 36.6671 36.0575 36.6671 33.9186V8.25241H34.8333V33.9186C34.8333 35.4464 34.205 35.9583 33.507 36.3073C32.809 36.6563 32.0792 36.6659 32.0792 36.6659H11.9144C10.3866 36.6659 9.87471 36.0377 9.5257 35.3396C9.17668 34.6416 9.16706 33.9186 9.16706 33.9186V4.58484H7.33328Z" fill="white"/>
<path d="M11.0012 37.5864V43.081C11.0003 43.2377 11.0396 43.392 11.1153 43.5292C11.1909 43.6664 11.3005 43.7819 11.4335 43.8647C11.5665 43.9474 11.7186 43.9948 11.8751 44.0021C12.0316 44.0094 12.1873 43.9765 12.3275 43.9065L15.5823 42.2758L18.8371 43.9065C18.9773 43.9765 19.1331 44.0094 19.2896 44.0021C19.4461 43.9948 19.5981 43.9474 19.7311 43.8646C19.8641 43.7819 19.9737 43.6664 20.0494 43.5292C20.125 43.392 20.1643 43.2377 20.1634 43.081V37.5864H18.3296V41.5991L15.9951 40.4285C15.8671 40.3639 15.7257 40.3303 15.5823 40.3303C15.4389 40.3303 15.2976 40.3639 15.1695 40.4285L12.835 41.5923V37.5864H11.0012Z" fill="white"/>
<path d="M21.9964 12.8337C16.9446 12.8337 12.8342 16.9509 12.8342 22.0027C12.8342 27.0544 16.9446 31.1648 21.9964 31.1648C27.0481 31.1648 31.1653 27.0544 31.1653 22.0027C31.1653 16.9509 27.0481 12.8337 21.9964 12.8337ZM21.9964 14.6675C26.0573 14.6675 29.3315 17.9417 29.3315 22.0027C29.3315 26.0636 26.0573 29.331 21.9964 29.331C17.9354 29.331 14.6612 26.0636 14.6612 22.0027C14.6612 17.9417 17.9354 14.6675 21.9964 14.6675Z" fill="white"/>
<path d="M19.2229 13.5914C16.6941 19.3331 16.9396 25.0083 19.2702 30.4271L20.9551 29.703C18.786 24.6597 18.5658 19.6313 20.901 14.329L19.2229 13.5914Z" fill="white"/>
<path d="M24.778 13.5914L23.0998 14.329C25.4825 19.7127 25.1511 24.7279 23.0254 29.7098L24.7171 30.4271C26.9944 25.0897 27.3605 19.4268 24.778 13.5914Z" fill="white"/>
<path d="M28.3436 16.8596C22.7091 19.3745 19.6234 19.0059 15.4936 16.9273L14.6748 18.5648C19.0916 20.7879 23.1419 21.1879 29.0947 18.531L28.3436 16.8596Z" fill="white"/>
<path d="M21.9964 23.8434C19.554 23.8438 17.1121 24.3893 14.7019 25.4809L15.453 27.1523C19.8552 25.1585 24.131 25.16 28.5331 27.1523L29.291 25.4809C26.8807 24.3901 24.4389 23.843 21.9964 23.8434Z" fill="white"/>
<path d="M11.9142 3.66455C11.671 3.66455 11.4378 3.76115 11.2659 3.9331C11.0939 4.10505 10.9973 4.33827 10.9973 4.58144C10.9973 4.82462 11.0939 5.05783 11.2659 5.22978C11.4378 5.40173 11.671 5.49834 11.9142 5.49834H28.4115C28.5319 5.49834 28.6511 5.47462 28.7624 5.42854C28.8736 5.38246 28.9747 5.31493 29.0598 5.22978C29.145 5.14464 29.2125 5.04356 29.2586 4.93232C29.3047 4.82108 29.3284 4.70185 29.3284 4.58144C29.3284 4.46104 29.3047 4.34181 29.2586 4.23056C29.2125 4.11932 29.145 4.01824 29.0598 3.9331C28.9747 3.84796 28.8736 3.78042 28.7624 3.73435C28.6511 3.68827 28.5319 3.66455 28.4115 3.66455H11.9142Z" fill="white"/>
</g>
<defs>
<clipPath id="clip0_4_683">
<rect width="44" height="44" fill="white"/>
</clipPath>
</defs>
</svg>
