<svg width="44" height="44" viewBox="0 0 44 44" fill="none" xmlns="http://www.w3.org/2000/svg">
<path d="M34.4077 16.6758C36.3437 16.6758 38.1477 17.1598 39.7757 18.0398C40.5677 14.6518 39.6437 10.9118 37.0037 8.27184C34.9797 6.24784 32.2957 5.23584 29.6117 5.23584C26.9717 5.23584 24.2877 6.24784 22.2637 8.27184L20.5477 9.98784L18.8317 8.27184C16.8077 6.24784 14.1237 5.23584 11.4397 5.23584C8.71167 5.23584 5.93967 6.29184 3.91567 8.44784C-0.000331879 12.5838 0.219668 19.1398 4.26767 23.1878L19.3157 38.2358C20.0197 38.9398 21.1197 38.9398 21.7797 38.2358L25.1237 34.8918C23.7157 32.9998 22.9237 30.6678 22.9237 28.1598C22.9237 21.8238 28.0717 16.6758 34.4077 16.6758Z" fill="white"/>
<path d="M34.3636 19.6237C29.6556 19.6237 25.8276 23.4517 25.8276 28.1597C25.8276 32.8677 29.6556 36.6957 34.3636 36.6957C39.0716 36.6957 42.8997 32.8677 42.8997 28.1597C42.8997 23.4517 39.0716 19.6237 34.3636 19.6237ZM39.1156 29.1277C39.1156 29.4357 38.8516 29.6997 38.5436 29.6997H35.9916V32.2517C35.9916 32.5597 35.7276 32.8237 35.4196 32.8237H33.4396C33.1316 32.8237 32.8676 32.5597 32.8676 32.2517V29.6997H30.3156C30.0076 29.6997 29.7436 29.4357 29.7436 29.1277V27.1477C29.7436 26.8397 30.0076 26.5757 30.3156 26.5757H32.8676V24.0237C32.8676 23.7157 33.1316 23.4517 33.4396 23.4517H35.4196C35.7276 23.4517 35.9916 23.7157 35.9916 24.0237V26.5757H38.5436C38.8516 26.5757 39.1156 26.8397 39.1156 27.1477V29.1277Z" fill="white"/>
</svg>
