<svg width="44" height="44" viewBox="0 0 44 44" fill="none" xmlns="http://www.w3.org/2000/svg">
<path d="M14.4488 10.4064L13.2991 8.53064C10.9099 9.99496 8.95234 12.0876 7.6385 14.5815L9.58418 15.6067C10.7145 13.463 12.3967 11.6648 14.4488 10.4064ZM12.3663 7.08216L11.2117 5.20952C8.23514 7.04432 5.7971 9.65924 4.16162 12.7722L6.10906 13.7957C7.56194 11.0316 9.72542 8.7106 12.3663 7.08216ZM33.8748 15.5588L35.8179 14.5265C34.4869 12.0229 32.506 9.92896 30.0886 8.46992L28.9521 10.3536C31.0289 11.6071 32.7313 13.4072 33.8748 15.5588ZM37.3495 13.7473L39.2939 12.7177C37.6408 9.59456 35.179 6.97832 32.1747 5.151L31.0311 7.03024C33.6971 8.65208 35.8817 10.9744 37.3495 13.7473ZM33.5167 21.9036C33.5167 15.3665 28.2169 10.0671 21.6798 10.0671C15.1427 10.0671 9.84466 15.3665 9.84466 21.9036C9.84466 28.4398 15.1423 33.7396 21.6793 33.7396C28.2164 33.7396 33.5167 28.4402 33.5167 21.9036ZM18.8743 21.9036C18.8743 20.3548 20.1305 19.0986 21.6793 19.0986C23.2286 19.0986 24.4843 20.3548 24.4843 21.9036C24.4843 23.4524 23.2286 24.7077 21.6793 24.7077C20.131 24.7077 18.8743 23.4524 18.8743 21.9036ZM39.8381 24.419C39.8381 23.2847 38.9185 22.366 37.7842 22.366C36.6499 22.366 35.7312 23.2847 35.7312 24.419C35.7312 25.2427 36.2187 25.948 36.9187 26.275C37.2611 30.0748 36.209 32.6448 29.3323 34.2618V32.5951C27.1745 34.1439 24.5327 35.06 21.6793 35.06C18.8255 35.06 16.1833 34.143 14.0251 32.5938V36.3545C14.0251 37.7268 15.148 38.8493 16.5199 38.8493H26.8379C28.1548 38.8493 29.239 37.8144 29.3239 36.5177C38.156 34.5628 39.487 30.6697 39.0866 25.9951C39.542 25.618 39.8381 25.0557 39.8381 24.419Z" fill="white"/>
</svg>
