<svg width="16" height="16" viewBox="0 0 16 16" fill="none" xmlns="http://www.w3.org/2000/svg">
<circle cx="8" cy="8" r="7.33333" stroke="white" stroke-width="1.33333"/>
<path d="M7.95867 10.0467C7.47333 10.0467 7.03778 9.94089 6.652 9.72933C6.27244 9.51778 5.97378 9.22222 5.756 8.84267C5.53822 8.45689 5.42933 8.02444 5.42933 7.54533C5.42933 7.06622 5.53822 6.63689 5.756 6.25733C5.97378 5.87778 6.27244 5.58222 6.652 5.37067C7.03778 5.15911 7.47333 5.05333 7.95867 5.05333C8.38178 5.05333 8.75822 5.13733 9.088 5.30533C9.424 5.46711 9.68844 5.70667 9.88133 6.024L9.38667 6.36C9.22489 6.11733 9.01956 5.93689 8.77067 5.81867C8.52178 5.69422 8.25111 5.632 7.95867 5.632C7.604 5.632 7.28356 5.71289 6.99733 5.87467C6.71733 6.03022 6.49644 6.25422 6.33467 6.54667C6.17911 6.83911 6.10133 7.172 6.10133 7.54533C6.10133 7.92489 6.17911 8.26089 6.33467 8.55333C6.49644 8.83956 6.71733 9.06356 6.99733 9.22533C7.28356 9.38089 7.604 9.45867 7.95867 9.45867C8.25111 9.45867 8.52178 9.39956 8.77067 9.28133C9.01956 9.16311 9.22489 8.98267 9.38667 8.74L9.88133 9.076C9.68844 9.39333 9.424 9.636 9.088 9.804C8.752 9.96578 8.37556 10.0467 7.95867 10.0467Z" fill="white"/>
</svg>
