<svg width="17" height="17" viewBox="0 0 17 17" fill="none" xmlns="http://www.w3.org/2000/svg">
<path d="M10.6475 3.73887C11.4025 3.88617 12.0964 4.2554 12.6403 4.79931C13.1842 5.34323 13.5534 6.03707 13.7007 6.79204L10.6475 3.73887ZM10.6475 0.647057C12.2161 0.821308 13.6788 1.52372 14.7954 2.63896C15.912 3.75421 16.6163 5.21599 16.7925 6.78431L10.6475 0.647057ZM16.0196 12.9525V15.2713C16.0204 15.4866 15.9763 15.6997 15.8901 15.8969C15.8039 16.0942 15.6774 16.2712 15.5188 16.4168C15.3601 16.5623 15.1729 16.6731 14.9689 16.742C14.765 16.811 14.5489 16.8366 14.3345 16.8173C11.956 16.5588 9.6713 15.746 7.66394 14.4443C5.79635 13.2575 4.21296 11.6741 3.02622 9.80656C1.71991 7.79008 0.906963 5.49425 0.653246 3.10505C0.633931 2.8913 0.659333 2.67588 0.727837 2.47248C0.79634 2.26909 0.906444 2.08219 1.05114 1.92368C1.19583 1.76518 1.37194 1.63853 1.56826 1.55182C1.76458 1.4651 1.97681 1.42021 2.19142 1.42001H4.51029C4.88541 1.41632 5.24907 1.54915 5.53349 1.79376C5.81792 2.03836 6.00369 2.37805 6.05619 2.74949C6.15407 3.49158 6.33558 4.22021 6.59726 4.92149C6.70126 5.19815 6.72377 5.49882 6.66212 5.78788C6.60047 6.07694 6.45725 6.34227 6.24943 6.55242L5.26778 7.53408C6.36812 9.4692 7.97038 11.0715 9.90551 12.1718L10.8872 11.1901C11.0973 10.9823 11.3626 10.8391 11.6517 10.7775C11.9408 10.7158 12.2414 10.7383 12.5181 10.8423C13.2194 11.104 13.948 11.2855 14.6901 11.3834C15.0656 11.4364 15.4085 11.6255 15.6536 11.9148C15.8987 12.2041 16.029 12.5734 16.0196 12.9525Z" fill="white"/>
</svg>
