<svg width="15" height="14" viewBox="0 0 15 14" fill="none" xmlns="http://www.w3.org/2000/svg">
<path d="M9.84221 4.78906C10.8472 4.78906 11.8111 5.18831 12.5218 5.89897C13.2324 6.60964 13.6317 7.57351 13.6317 8.57854V12.9996H11.1054V8.57854C11.1054 8.24353 10.9723 7.92224 10.7354 7.68535C10.4985 7.44846 10.1772 7.31538 9.84221 7.31538C9.5072 7.31538 9.18591 7.44846 8.94902 7.68535C8.71213 7.92224 8.57905 8.24353 8.57905 8.57854V12.9996H6.05273V8.57854C6.05273 7.57351 6.45198 6.60964 7.16265 5.89897C7.87331 5.18831 8.83718 4.78906 9.84221 4.78906Z" fill="white" stroke="white" stroke-width="0.857143" stroke-linecap="round" stroke-linejoin="round"/>
<path d="M3.52656 5.42059H1.00024V12.9995H3.52656V5.42059Z" fill="white" stroke="white" stroke-width="0.857143" stroke-linecap="round" stroke-linejoin="round"/>
<path d="M2.2634 3.52616C2.96102 3.52616 3.52656 2.96063 3.52656 2.26301C3.52656 1.56538 2.96102 0.999847 2.2634 0.999847C1.56578 0.999847 1.00024 1.56538 1.00024 2.26301C1.00024 2.96063 1.56578 3.52616 2.2634 3.52616Z" fill="white" stroke="white" stroke-width="0.857143" stroke-linecap="round" stroke-linejoin="round"/>
</svg>
