<svg width="14" height="14" viewBox="0 0 14 14" fill="none" xmlns="http://www.w3.org/2000/svg">
<path d="M7.77763 6.50148L6.81505 6.28786C6.4489 6.20444 6.02742 6.09421 6.02742 5.74899C6.02742 5.40303 6.32307 5.16132 6.85681 5.16132C7.93251 5.16132 7.83424 5.90056 8.3683 5.90056C8.64932 5.90056 8.89531 5.73532 8.89531 5.4512C8.89531 4.78822 7.83424 4.2907 6.93414 4.2907C5.95703 4.2907 4.91647 4.70566 4.91647 5.81084C4.91647 6.34308 5.1066 6.90929 6.15399 7.17194L7.45453 7.49664C7.84813 7.59363 7.94661 7.81505 7.94661 8.01479C7.94661 8.34697 7.61667 8.67146 7.01895 8.67146C5.85139 8.67146 6.01343 7.77296 5.38773 7.77296C5.1066 7.77296 4.90259 7.96661 4.90259 8.24294C4.90259 8.78169 5.5567 9.50064 7.01895 9.50064C8.41017 9.50064 9.09953 8.83008 9.09953 7.93201C9.09953 7.35213 8.83218 6.73647 7.77763 6.50148Z" fill="white"/>
<path d="M7 0C3.1346 0 0 3.1346 0 7C0 10.8654 3.1346 14 7 14C10.8654 14 14 10.8654 14 7C14 3.1346 10.8654 0 7 0ZM10.6445 10.6342C10.1843 11.0946 9.57266 11.3477 8.92197 11.3477C8.50049 11.3477 8.08777 11.2381 7.72322 11.0318C7.48663 11.0738 7.24428 11.0959 7.00246 11.0959C6.44682 11.0959 5.90764 10.987 5.40039 10.7719C4.90991 10.5652 4.46996 10.2681 4.09174 9.89011C3.71394 9.51221 3.41722 9.07225 3.21011 8.58199C2.99521 8.07442 2.88647 7.53555 2.88647 6.97981C2.88647 6.74184 2.90784 6.50354 2.94843 6.27037C2.74837 5.91052 2.64188 5.50336 2.64188 5.08904C2.64188 4.43823 2.89545 3.82631 3.35548 3.36617C3.81573 2.90581 4.42766 2.65234 5.07846 2.65234C5.47708 2.65234 5.871 2.75179 6.22113 2.93796C6.22177 2.93785 6.22252 2.93785 6.22305 2.93764C6.47833 2.88872 6.74055 2.86404 7.00246 2.86404C7.55798 2.86404 8.09706 2.97289 8.60431 3.18747C9.09425 3.39479 9.53474 3.69151 9.91243 4.06941C10.2906 4.44742 10.5873 4.88759 10.7946 5.37775C11.0095 5.88521 11.1182 6.42418 11.1182 6.97981C11.1182 7.23029 11.0946 7.48097 11.0497 7.72589C11.2511 8.08713 11.3582 8.49568 11.3582 8.91139C11.3581 9.56219 11.1049 10.1742 10.6445 10.6342Z" fill="white"/>
</svg>
