<svg width="13" height="11" viewBox="0 0 13 11" fill="none" xmlns="http://www.w3.org/2000/svg">
<path d="M12.8574 0.00555053C12.2977 0.392749 11.6781 0.688894 11.0223 0.88258C10.6704 0.48563 10.2026 0.204282 9.68228 0.0765877C9.16197 -0.0511065 8.61423 -0.0189859 8.11315 0.168605C7.61206 0.356197 7.1818 0.690208 6.88056 1.12546C6.57932 1.56072 6.42163 2.07622 6.42882 2.60225V3.17547C5.40178 3.20159 4.38411 2.97817 3.46642 2.52512C2.54873 2.07206 1.75952 1.40343 1.16908 0.578773C1.16908 0.578773 -1.16859 5.73777 4.09115 8.03066C2.88757 8.832 1.45378 9.23381 0.000244141 9.1771C5.25998 12.0432 11.6886 9.1771 11.6886 2.58505C11.688 2.42538 11.6724 2.26611 11.6418 2.10928C12.2383 1.53232 12.6592 0.803884 12.8574 0.00555053Z" fill="white"/>
</svg>
