<svg width="44" height="44" viewBox="0 0 44 44" fill="none" xmlns="http://www.w3.org/2000/svg">
<path d="M40.2199 19.9673C40.6101 20.2708 40.9242 20.661 41.1373 21.107C41.3504 21.5531 41.4566 22.0426 41.4475 22.5369V23.5577C41.4475 24.7677 41.4475 25.9821 41.4475 27.1921C41.4514 27.76 41.3038 28.3186 41.02 28.8105C40.7362 29.3024 40.3263 29.7097 39.8327 29.9905C39.0201 30.4963 38.0916 30.7856 37.1355 30.8309H36.9023C36.3487 30.8375 35.8059 30.6768 35.3451 30.3698C34.8842 30.0628 34.5268 29.6239 34.3195 29.1105C34.079 28.5528 33.939 27.9569 33.9059 27.3505V27.3241L33.9983 21.6041C34.0565 21.0173 34.2843 20.4602 34.6539 20.0007C35.0235 19.5413 35.5189 19.1994 36.0795 19.0169C36.0567 16.9948 35.5705 15.0049 34.6583 13.2001C32.3923 8.76047 28.7931 6.16007 23.9575 5.43407C20.3352 4.89604 16.6464 5.80096 13.6842 7.95425C10.7221 10.1075 8.72329 13.3372 8.11752 16.9489C8.02651 17.5508 7.97214 18.1576 7.95472 18.7661C7.95472 18.8541 7.95472 18.9421 7.95472 19.0257C8.42317 19.1727 8.84716 19.4351 9.18774 19.7888C9.52833 20.1425 9.7746 20.576 9.90392 21.0497C10.0453 21.5087 10.1179 21.9862 10.1195 22.4665C10.1195 24.1693 10.1195 25.7225 10.1195 27.2053C10.1091 27.7124 10.0231 28.2151 9.86432 28.6969C9.67698 29.3067 9.30491 29.8432 8.79952 30.2325C8.96705 32.2304 9.87833 34.0926 11.3531 35.4509C12.8278 36.8091 14.7586 37.5644 16.7635 37.5673H17.8063C17.9872 37.2485 18.2496 36.9836 18.5666 36.7996C18.8836 36.6156 19.2438 36.5191 19.6103 36.5201H23.5923C24.1431 36.5201 24.6714 36.7389 25.0608 37.1284C25.4503 37.5178 25.6691 38.0461 25.6691 38.5969V40.7969C25.6691 41.3477 25.4503 41.8759 25.0608 42.2654C24.6714 42.6549 24.1431 42.8737 23.5923 42.8737H19.6103C19.2419 42.8712 18.8809 42.7704 18.5645 42.5817C18.2481 42.3929 17.9879 42.1231 17.8107 41.8001H16.7679C13.6492 41.795 10.6504 40.5979 8.38537 38.454C6.12039 36.3101 4.76058 33.3814 4.58432 30.2677C4.3659 30.1574 4.15693 30.0294 3.95952 29.8849C3.54293 29.6083 3.19881 29.2358 2.9561 28.7986C2.71339 28.3614 2.57917 27.8723 2.56472 27.3725C2.53832 25.7753 2.53832 24.0901 2.56472 22.3609C2.5706 21.892 2.68345 21.4307 2.89467 21.0121C3.10589 20.5935 3.4099 20.2286 3.78352 19.9453C3.61431 15.2014 5.32169 10.582 8.53552 7.08847C11.0515 4.21167 14.4601 2.26253 18.2155 1.55327C25.2555 0.206873 31.2175 2.23967 35.9079 7.59887C38.8867 11.0221 40.3431 15.1845 40.2199 19.9673ZM29.2199 23.9273C29.0521 24.5432 28.8051 25.1348 28.4851 25.6873L29.3167 26.8709C29.4645 27.082 29.5332 27.3384 29.5107 27.5951C29.4881 27.8518 29.3758 28.0924 29.1935 28.2745L28.3399 29.1281C28.1578 29.3104 27.9173 29.4227 27.6606 29.4452C27.4038 29.4678 27.1474 29.3991 26.9363 29.2513L25.7395 28.4417C25.1872 28.7619 24.5956 29.0089 23.9795 29.1765L23.7287 30.6021C23.6842 30.8558 23.5518 31.0857 23.3547 31.2514C23.1575 31.4172 22.9083 31.5082 22.6507 31.5085H21.4275C21.17 31.5082 20.9207 31.4172 20.7236 31.2514C20.5264 31.0857 20.394 30.8558 20.3495 30.6021L20.0987 29.1765C19.4827 29.0088 18.8911 28.7618 18.3387 28.4417L17.1595 29.2733C16.9484 29.4211 16.692 29.4898 16.4353 29.4672C16.1786 29.4447 15.938 29.3324 15.7559 29.1501L14.9023 28.2965C14.72 28.1144 14.6077 27.8738 14.5852 27.6171C14.5626 27.3604 14.6313 27.104 14.7791 26.8929L15.6107 25.7093C15.2909 25.1568 15.0439 24.5652 14.8759 23.9493L13.4503 23.6985C13.1966 23.654 12.9667 23.5216 12.801 23.3244C12.6352 23.1273 12.5442 22.878 12.5439 22.6205V21.3973C12.5442 21.1397 12.6352 20.8905 12.801 20.6933C12.9667 20.4962 13.1966 20.3638 13.4503 20.3193L14.8759 20.0685C15.0439 19.4526 15.2909 18.861 15.6107 18.3085L14.7791 17.1249C14.6313 16.9138 14.5626 16.6574 14.5852 16.4006C14.6077 16.1439 14.72 15.9034 14.9023 15.7213L15.7559 14.8677C15.9358 14.6827 16.1753 14.5671 16.432 14.5413C16.6888 14.5156 16.9465 14.5813 17.1595 14.7269L18.3431 15.5585C18.8956 15.2385 19.4872 14.9915 20.1031 14.8237L20.3539 13.3981C20.3984 13.1444 20.5308 12.9145 20.728 12.7487C20.9251 12.5829 21.1744 12.4919 21.4319 12.4917H22.6419C22.8995 12.4919 23.1487 12.5829 23.3459 12.7487C23.543 12.9145 23.6754 13.1444 23.7199 13.3981L23.9707 14.8237C24.5867 14.9913 25.1784 15.2383 25.7307 15.5585L26.9143 14.7269C27.1254 14.5791 27.3818 14.5104 27.6386 14.5329C27.8953 14.5554 28.1358 14.6677 28.3179 14.8501L29.1715 15.7037C29.3538 15.8858 29.4661 16.1263 29.4887 16.383C29.5112 16.6398 29.4425 16.8962 29.2947 17.1073L28.4631 18.2909C28.7832 18.8433 29.0302 19.4349 29.1979 20.0509L30.6235 20.3017C30.8772 20.3462 31.1071 20.4786 31.2729 20.6757C31.4387 20.8729 31.5297 21.1221 31.5299 21.3797V22.5897C31.5297 22.8472 31.4387 23.0965 31.2729 23.2936C31.1071 23.4908 30.8772 23.6232 30.6235 23.6677L29.2199 23.9273ZM25.3171 22.0001C25.3171 21.35 25.1244 20.7145 24.7632 20.174C24.402 19.6335 23.8887 19.2122 23.2881 18.9635C22.6875 18.7147 22.0267 18.6496 21.3891 18.7764C20.7515 18.9032 20.1659 19.2163 19.7062 19.676C19.2465 20.1356 18.9335 20.7213 18.8067 21.3589C18.6799 21.9964 18.7449 22.6573 18.9937 23.2579C19.2425 23.8585 19.6638 24.3718 20.2043 24.7329C20.7448 25.0941 21.3803 25.2869 22.0303 25.2869C22.902 25.2869 23.738 24.9406 24.3544 24.3242C24.9708 23.7078 25.3171 22.8718 25.3171 22.0001Z" fill="white"/>
</svg>
