<svg width="25" height="21" viewBox="0 0 25 21" fill="none" xmlns="http://www.w3.org/2000/svg">
<path opacity="0.2" d="M16.9986 11.416C17.6143 11.5933 18.2301 11.6833 18.829 11.6833C19.754 11.6833 20.5257 11.4719 21.1242 11.2131C20.5472 13.3251 19.1613 16.9695 16.4004 17.3799C16.1447 17.4179 15.9352 17.6028 15.8654 17.8517L15.262 20.0099C15.2112 20.1924 15.2413 20.3878 15.3454 20.5462C15.4495 20.7046 15.6168 20.8103 15.8043 20.836C16.0081 20.8638 16.2158 20.8779 16.4217 20.8779C19.7356 20.8779 23.0175 17.419 24.4024 12.4663C25.2154 9.56068 25.4537 5.19227 23.4513 2.44268C22.3307 0.904114 20.6959 0.0825138 18.5922 0.000432968C18.5836 0.000169754 18.5752 -9.15527e-05 18.5665 -9.15527e-05C15.9709 -9.15527e-05 13.6692 1.748 12.969 4.25056C12.5507 5.74665 12.7398 7.31563 13.5019 8.66958C14.2558 10.0083 15.4975 10.9841 16.9986 11.416Z" fill="#1CC198"/>
<path opacity="0.2" d="M0.750401 8.66932C1.50434 10.0083 2.74605 10.9841 4.24712 11.416C4.86286 11.5933 5.4786 11.6833 6.07729 11.6833C7.00222 11.6833 7.77425 11.4719 8.37269 11.2131C7.79576 13.3251 6.40981 16.9695 3.64868 17.3799C3.393 17.4179 3.18373 17.6028 3.11371 17.8517L2.5103 20.0099C2.45942 20.1924 2.48958 20.3878 2.59369 20.5462C2.69754 20.7046 2.86485 20.8103 3.05261 20.836C3.25611 20.8638 3.4638 20.8779 3.66993 20.8779C6.98386 20.8779 10.2658 17.419 11.651 12.4663C12.4636 9.56068 12.702 5.19227 10.6993 2.44216C9.57899 0.903852 7.94392 0.0819893 5.84049 0.000169754C5.83184 -9.15527e-05 5.82344 -0.000354767 5.81453 -0.000354767C3.21913 -0.000354767 0.917186 1.74774 0.217004 4.2503C-0.200746 5.74639 -0.0114088 7.31563 0.750401 8.66932Z" fill="#1CC198"/>
</svg>
