<svg width="180" height="30" viewBox="0 0 180 30" fill="none" xmlns="http://www.w3.org/2000/svg">
<circle opacity="0.3" cx="15" cy="15" r="14.5" stroke="white"/>
<path d="M20 11.005C19.5212 11.3428 18.9911 11.6011 18.43 11.77C18.1289 11.4238 17.7287 11.1784 17.2835 11.067C16.8384 10.9556 16.3697 10.9836 15.941 11.1473C15.5123 11.3109 15.1442 11.6022 14.8865 11.9819C14.6288 12.3615 14.4938 12.8112 14.5 13.27V13.77C13.6213 13.7928 12.7506 13.5979 11.9655 13.2028C11.1804 12.8076 10.5052 12.2243 10 11.505C10 11.505 8 16.005 12.5 18.005C11.4703 18.704 10.2436 19.0545 9 19.005C13.5 21.505 19 19.005 19 13.255C18.9995 13.1158 18.9861 12.9768 18.96 12.84C19.4703 12.3368 19.8304 11.7014 20 11.005V11.005Z" stroke="white" stroke-linecap="round" stroke-linejoin="round"/>
<circle opacity="0.3" cx="65" cy="15" r="14.5" stroke="white"/>
<path d="M67.5 10H66C65.337 10 64.7011 10.2634 64.2322 10.7322C63.7634 11.2011 63.5 11.837 63.5 12.5V14H62V16H63.5V20H65.5V16H67L67.5 14H65.5V12.5C65.5 12.3674 65.5527 12.2402 65.6464 12.1464C65.7402 12.0527 65.8674 12 66 12H67.5V10Z" stroke="white" stroke-linecap="round" stroke-linejoin="round"/>
<circle opacity="0.3" cx="115" cy="15" r="14.5" stroke="white"/>
<path d="M117.5 10H112.5C111.119 10 110 11.1193 110 12.5V17.5C110 18.8807 111.119 20 112.5 20H117.5C118.881 20 120 18.8807 120 17.5V12.5C120 11.1193 118.881 10 117.5 10Z" stroke="white" stroke-linecap="round" stroke-linejoin="round"/>
<path d="M117 14.6852C117.062 15.1013 116.99 15.5263 116.797 15.8997C116.603 16.2731 116.296 16.5759 115.921 16.765C115.545 16.9541 115.119 17.0199 114.704 16.9531C114.288 16.8863 113.905 16.6902 113.607 16.3927C113.31 16.0953 113.114 15.7116 113.047 15.2963C112.98 14.8809 113.046 14.4551 113.235 14.0793C113.424 13.7036 113.727 13.397 114.1 13.2033C114.474 13.0095 114.899 12.9384 115.315 13.0002C115.739 13.0631 116.132 13.2609 116.436 13.5643C116.739 13.8677 116.937 14.2607 117 14.6852Z" stroke="white" stroke-linecap="round" stroke-linejoin="round"/>
<path d="M117.75 12.25H117.755" stroke="white" stroke-linecap="round" stroke-linejoin="round"/>
<circle opacity="0.3" cx="165" cy="15" r="14.5" stroke="white"/>
<path d="M167 13C167.796 13 168.559 13.3161 169.121 13.8787C169.684 14.4413 170 15.2044 170 16V19.5H168V16C168 15.7348 167.895 15.4804 167.707 15.2929C167.52 15.1054 167.265 15 167 15C166.735 15 166.48 15.1054 166.293 15.2929C166.105 15.4804 166 15.7348 166 16V19.5H164V16C164 15.2044 164.316 14.4413 164.879 13.8787C165.441 13.3161 166.204 13 167 13Z" stroke="white" stroke-linecap="round" stroke-linejoin="round"/>
<path d="M162 13.5H160V19.5H162V13.5Z" stroke="white" stroke-linecap="round" stroke-linejoin="round"/>
<path d="M161 12C161.553 12 162 11.5523 162 11C162 10.4477 161.553 10 161 10C160.448 10 160 10.4477 160 11C160 11.5523 160.448 12 161 12Z" stroke="white" stroke-linecap="round" stroke-linejoin="round"/>
</svg>
