<svg width="25" height="21" viewBox="0 0 25 21" fill="none" xmlns="http://www.w3.org/2000/svg">
<path opacity="0.2" d="M8.00141 9.4619C7.38567 9.28463 6.76993 9.19468 6.17097 9.19468C5.24605 9.19468 4.47428 9.40605 3.87584 9.66488C4.45277 7.55279 5.83871 3.90843 8.59958 3.49803C8.85527 3.46 9.0648 3.27512 9.13455 3.02626L9.73797 0.868016C9.78884 0.685497 9.75869 0.490128 9.65458 0.331734C9.55047 0.173341 9.38316 0.067658 9.19565 0.0419585C8.99189 0.014161 8.7842 0 8.57834 0C5.26441 0 1.98247 3.45895 0.597573 8.41163C-0.215373 11.3173 -0.45375 15.6857 1.54872 18.4352C2.66927 19.9738 4.30408 20.7954 6.40777 20.8775C6.41643 20.8778 6.42482 20.878 6.43348 20.878C9.02913 20.878 11.3308 19.1299 12.031 16.6274C12.4493 15.1313 12.2602 13.5623 11.4981 12.2083C10.7442 10.8696 9.50248 9.89381 8.00141 9.4619Z" fill="#1CC198"/>
<path opacity="0.2" d="M24.2496 12.2086C23.4957 10.8696 22.2539 9.89381 20.7529 9.4619C20.1371 9.28463 19.5214 9.19468 18.9227 9.19468C17.9978 9.19468 17.2257 9.40605 16.6273 9.66488C17.2042 7.55279 18.5902 3.90843 21.3513 3.49803C21.607 3.46 21.8163 3.27512 21.8863 3.02626L22.4897 0.868016C22.5406 0.685497 22.5104 0.490128 22.4063 0.331734C22.3025 0.173341 22.1352 0.067658 21.9474 0.0419585C21.7439 0.014161 21.5362 0 21.3301 0C18.0161 0 14.7342 3.45895 13.349 8.41163C12.5364 11.3173 12.298 15.6857 14.3007 18.4358C15.421 19.9741 17.0561 20.7959 19.1595 20.8778C19.1682 20.878 19.1766 20.8783 19.1855 20.8783C21.7809 20.8783 24.0828 19.1302 24.783 16.6276C25.2007 15.1315 25.0114 13.5623 24.2496 12.2086Z" fill="#1CC198"/>
</svg>
